<?xml version="1.0" ?><!-- Uploaded to: SVG Repo, www.svgrepo.com, Generator: SVG Repo Mixer Tools -->
<svg width="800px" height="800px" viewBox="0 0 100 100" data-name="Layer 2" id="Layer_2" xmlns="http://www.w3.org/2000/svg"><defs><style>.cls-1{fill:none;stroke:#000000;stroke-linecap:round;stroke-linejoin:round;stroke-width:6px;}</style></defs><title/><path class="cls-1" d="M63.62,34A16.85,16.85,0,1,1,46.78,17.11"/><polygon class="cls-1" points="63.62 22.79 57.17 33.12 70.06 33.12 63.62 22.79"/><path class="cls-1" d="M78.09,34A28.07,28.07,0,0,1,63.34,58.67,8.35,8.35,0,0,0,58.88,66v4.07H41.12V66a8.35,8.35,0,0,0-4.46-7.33A28.09,28.09,0,1,1,78.09,34Z"/><path class="cls-1" d="M35.66,70.07H64.34a0,0,0,0,1,0,0V79.8A14.34,14.34,0,0,1,50,94.14h0A14.34,14.34,0,0,1,35.66,79.8V70.07A0,0,0,0,1,35.66,70.07Z"/><line class="cls-1" x1="35.66" x2="64.34" y1="78.09" y2="78.09"/></svg>