<?xml version="1.0" encoding="UTF-8" standalone="no"?><!DOCTYPE svg PUBLIC "-//W3C//DTD SVG 1.1//EN" "http://www.w3.org/Graphics/SVG/1.1/DTD/svg11.dtd"><svg width="100%" height="100%" viewBox="0 0 946 591" version="1.1" xmlns="http://www.w3.org/2000/svg" xmlns:xlink="http://www.w3.org/1999/xlink" xml:space="preserve" xmlns:serif="http://www.serif.com/" style="fill-rule:evenodd;clip-rule:evenodd;stroke-linecap:square;stroke-miterlimit:2;"><rect id="ArtBoard12" x="0" y="0" width="945.086" height="590.442" style="fill:none;"/><g><g><path d="M72.793,184.095c-0,-14.583 2.771,-28.389 8.312,-41.417c5.542,-13.028 13.271,-24.548 23.188,-34.562c9.917,-10.014 21.389,-17.889 34.417,-23.625c13.027,-5.736 26.93,-8.604 41.708,-8.604c14.778,-0 28.729,2.868 41.854,8.604c13.125,5.736 24.695,13.611 34.708,23.625c10.014,10.014 17.841,21.534 23.48,34.562c5.639,13.028 8.458,26.834 8.458,41.417c-0,14.972 -2.819,28.972 -8.458,42c-5.639,13.028 -13.466,24.5 -23.48,34.417c-10.013,9.916 -21.583,17.645 -34.708,23.187c-13.125,5.542 -27.076,8.313 -41.854,8.313c-14.778,-0 -28.681,-2.771 -41.708,-8.313c-13.028,-5.542 -24.5,-13.174 -34.417,-22.896c-9.917,-9.722 -17.646,-21.146 -23.188,-34.271c-5.541,-13.125 -8.312,-27.27 -8.312,-42.437Zm31.5,0.292c-0,14.388 3.403,27.513 10.208,39.375c6.806,11.861 16.042,21.291 27.709,28.291c11.666,7 24.694,10.5 39.083,10.5c14.194,0 27.028,-3.5 38.5,-10.5c11.472,-7 20.611,-16.43 27.417,-28.291c6.805,-11.862 10.208,-25.084 10.208,-39.667c-0,-14.583 -3.451,-27.854 -10.354,-39.813c-6.903,-11.958 -16.139,-21.437 -27.709,-28.437c-11.569,-7 -24.451,-10.5 -38.645,-10.5c-14.389,-0 -27.368,3.549 -38.938,10.646c-11.569,7.097 -20.708,16.625 -27.417,28.583c-6.708,11.958 -10.062,25.229 -10.062,39.813Z" style="fill:#f8f9fa;"/><path d="M393.335,78.22c23.333,-0 41.611,5.833 54.833,17.5c13.222,11.667 19.833,28 19.833,49c0,8.361 -1.264,16.625 -3.791,24.792c-2.528,8.166 -6.563,15.604 -12.105,22.312c-5.541,6.708 -12.833,12.056 -21.875,16.042c-9.041,3.986 -20.076,5.979 -33.104,5.979l-31.208,-0l-0,75.833l-30.333,0l-0,-211.458l57.75,-0Zm3.5,105.875c7.972,-0 14.632,-1.313 19.979,-3.938c5.347,-2.625 9.528,-5.979 12.541,-10.062c3.014,-4.083 5.153,-8.361 6.417,-12.833c1.264,-4.473 1.896,-8.459 1.896,-11.959c-0,-3.889 -0.632,-8.021 -1.896,-12.396c-1.264,-4.375 -3.403,-8.458 -6.417,-12.25c-3.013,-3.791 -7.048,-6.902 -12.104,-9.333c-5.055,-2.43 -11.375,-3.646 -18.958,-3.646l-32.375,0l-0,76.417l30.917,-0Z" style="fill:#f8f9fa;"/><path d="M495.71,78.22l140.875,-0l-0,29.458l-56,0l-0,182l-30.625,0l-0,-182l-54.25,0l-0,-29.458Z" style="fill:#f8f9fa;"/></g><g><path d="M767.059,92.912l0,45.287" style="fill:none;fill-rule:nonzero;stroke:#1fffd6;stroke-width:29.89px;"/><path d="M730.756,97.19c-33.522,14.287 -57.047,47.763 -57.047,86.782c-0,24.119 8.988,46.119 23.77,62.78c11.854,13.361 20.139,20.178 38.463,26.03c9.842,3.143 20.207,5.359 31.117,5.359c51.556,-0 93.35,-42.161 93.35,-94.169c0,-39.019 -23.525,-72.495 -57.047,-86.782" style="fill:none;fill-rule:nonzero;stroke:#f8f9fa;stroke-width:28.33px;stroke-linecap:butt;"/></g><g><path d="M141.204,463.793c-12.601,0 -23.451,-2.435 -32.551,-7.306c-9.101,-4.871 -16.101,-11.623 -21.001,-20.254c-4.9,-8.631 -7.35,-18.416 -7.35,-29.355c-0,-10.597 2.756,-20.211 8.269,-28.842c5.512,-8.631 12.906,-15.51 22.182,-20.638c9.275,-5.127 19.6,-7.691 30.976,-7.691c14.7,-0 26.907,4.145 36.62,12.434c9.713,8.289 16.232,19.954 19.557,34.995l-89.516,30.252l-6.3,-14.869l71.928,-25.638l-5.513,3.589c-2.1,-5.469 -5.425,-10.212 -9.976,-14.228c-4.55,-4.017 -10.762,-6.025 -18.638,-6.025c-9.8,-0 -17.807,3.29 -24.019,9.87c-6.213,6.58 -9.319,14.998 -9.319,25.253c-0,10.939 3.325,19.741 9.975,26.407c6.65,6.665 15.05,9.998 25.201,9.998c4.725,0 9.275,-0.812 13.65,-2.435c4.375,-1.624 8.488,-3.803 12.338,-6.538l12.076,19.228c-5.6,3.589 -11.769,6.452 -18.507,8.589c-6.738,2.136 -13.432,3.204 -20.082,3.204Z" style="fill:#1fffd6;fill-rule:nonzero;"/><path d="M251.458,354.065l2.362,24.869l-1.05,-3.59c3.501,-7.691 9.144,-13.844 16.932,-18.459c7.788,-4.614 16.932,-6.922 27.433,-6.922c10.325,0 18.813,2.949 25.463,8.845c6.65,5.897 10.063,13.631 10.238,23.202l-0,79.22l-26.514,-0l0,-70.247c-0.175,-5.469 -1.837,-9.956 -4.987,-13.46c-3.15,-3.503 -8.051,-5.341 -14.701,-5.512c-9.275,0 -17.019,3.761 -23.232,11.281c-6.213,7.52 -9.319,17.177 -9.319,28.97l-0,48.968l-26.514,-0l0,-107.165l23.889,0Z" style="fill:#1fffd6;fill-rule:nonzero;"/><path d="M426.027,463.793c-12.601,0 -23.451,-2.435 -32.551,-7.306c-9.101,-4.871 -16.101,-11.623 -21.001,-20.254c-4.9,-8.631 -7.35,-18.416 -7.35,-29.355c-0,-10.597 2.756,-20.211 8.269,-28.842c5.512,-8.631 12.906,-15.51 22.182,-20.638c9.275,-5.127 19.6,-7.691 30.976,-7.691c14.7,-0 26.907,4.145 36.62,12.434c9.713,8.289 16.232,19.954 19.557,34.995l-89.516,30.252l-6.3,-14.869l71.927,-25.638l-5.512,3.589c-2.1,-5.469 -5.425,-10.212 -9.976,-14.228c-4.55,-4.017 -10.763,-6.025 -18.638,-6.025c-9.8,-0 -17.807,3.29 -24.019,9.87c-6.213,6.58 -9.32,14.998 -9.32,25.253c0,10.939 3.326,19.741 9.976,26.407c6.65,6.665 15.05,9.998 25.201,9.998c4.725,0 9.275,-0.812 13.65,-2.435c4.375,-1.624 8.488,-3.803 12.338,-6.538l12.076,19.228c-5.601,3.589 -11.77,6.452 -18.507,8.589c-6.738,2.136 -13.432,3.204 -20.082,3.204Z" style="fill:#1fffd6;fill-rule:nonzero;"/><path d="M536.018,354.065l2.625,30.765l-1.05,-4.102c2.975,-6.495 7.132,-12.049 12.47,-16.664c5.337,-4.615 10.937,-8.161 16.8,-10.64c5.863,-2.478 10.807,-3.717 14.832,-3.717l-1.313,25.637c-8.225,-0.512 -15.444,1.026 -21.657,4.615c-6.212,3.589 -11.069,8.375 -14.569,14.357c-3.5,5.982 -5.25,12.391 -5.25,19.228l-0,47.686l-26.514,-0l0,-107.165l23.626,0Z" style="fill:#1fffd6;fill-rule:nonzero;"/><path d="M661.235,514.555c-8.4,0 -15.75,-0.982 -22.05,-2.948c-6.301,-1.965 -11.945,-4.572 -16.932,-7.819c-4.988,-3.248 -9.757,-6.837 -14.307,-10.768l15.75,-17.69c5.426,5.128 11.07,9.144 16.932,12.05c5.863,2.905 12.557,4.358 20.082,4.358c11.901,0 21.089,-2.735 27.564,-8.204c6.475,-5.469 9.8,-12.819 9.975,-22.048l0,-27.945l1.838,4.871c-3.15,7.179 -8.707,13.204 -16.67,18.075c-7.962,4.871 -17.806,7.306 -29.532,7.306c-10.15,0 -19.426,-2.478 -27.826,-7.435c-8.4,-4.956 -15.138,-11.707 -20.213,-20.253c-5.075,-8.546 -7.613,-18.203 -7.613,-28.97c0,-11.11 2.669,-20.98 8.007,-29.612c5.337,-8.631 12.381,-15.425 21.132,-20.381c8.75,-4.957 18.113,-7.435 28.088,-7.435c9.8,-0 18.595,1.795 26.382,5.384c7.788,3.589 13.52,8.204 17.195,13.844l-1.313,4.358l2.625,-19.228l24.414,0l-0,107.934c-0,9.742 -2.625,18.587 -7.876,26.534c-5.25,7.948 -12.6,14.272 -22.05,18.972c-9.451,4.7 -20.651,7.05 -33.602,7.05Zm-36.226,-108.189c0,6.836 1.619,12.989 4.856,18.458c3.238,5.47 7.613,9.785 13.126,12.947c5.513,3.162 11.682,4.743 18.507,4.743c9.275,0 17.15,-2.35 23.626,-7.05c6.475,-4.7 10.85,-10.725 13.125,-18.074l0,-22.049c-2.275,-7.349 -6.738,-13.288 -13.388,-17.818c-6.65,-4.529 -14.438,-6.793 -23.363,-6.793c-6.825,-0 -12.994,1.538 -18.507,4.614c-5.513,3.077 -9.888,7.264 -13.126,12.563c-3.237,5.298 -4.856,11.451 -4.856,18.459Z" style="fill:#1fffd6;fill-rule:nonzero;"/><path d="M775.69,512.761l72.19,-158.696l24.413,0l-70.878,158.696l-25.725,-0Zm27.301,-50.762l-52.765,-107.934l29.664,0l43.839,94.859l-20.738,13.075Z" style="fill:#1fffd6;fill-rule:nonzero;"/></g></g></svg>