<?xml version="1.0" encoding="UTF-8" standalone="no"?>
<!DOCTYPE svg PUBLIC "-//W3C//DTD SVG 1.1//EN" "http://www.w3.org/Graphics/SVG/1.1/DTD/svg11.dtd">
<svg width="100%" height="100%" viewBox="0 0 946 591" version="1.1" xmlns="http://www.w3.org/2000/svg" xmlns:xlink="http://www.w3.org/1999/xlink" xml:space="preserve" xmlns:serif="http://www.serif.com/" style="fill-rule:evenodd;clip-rule:evenodd;stroke-linecap:square;stroke-miterlimit:2;">
    <g transform="matrix(1,0,0,1,-2598.55,-10631)">
        <g id="ArtBoard5" transform="matrix(0.889081,0,0,0.833179,296.405,1773.4)">
            <rect x="2589.36" y="10631.1" width="1062.99" height="708.661" style="fill:none;"/>
            <g transform="matrix(1.82914,0,0,2.95246,4808.93,9587.7)">
                <g transform="matrix(0.61491,0,0,0.406516,-1453.98,-194.104)">
                    <path d="M463.95,1544.12C463.95,1529.53 466.721,1515.73 472.263,1502.7C477.804,1489.67 485.534,1478.15 495.45,1468.13C505.367,1458.12 516.839,1450.25 529.867,1444.51C542.895,1438.77 556.797,1435.91 571.575,1435.91C586.353,1435.91 600.304,1438.77 613.429,1444.51C626.554,1450.25 638.124,1458.12 648.138,1468.13C658.152,1478.15 665.978,1489.67 671.617,1502.7C677.256,1515.73 680.075,1529.53 680.075,1544.12C680.075,1559.09 677.256,1573.09 671.617,1586.12C665.978,1599.14 658.152,1610.62 648.138,1620.53C638.124,1630.45 626.554,1638.18 613.429,1643.72C600.304,1649.26 586.353,1652.03 571.575,1652.03C556.797,1652.03 542.895,1649.26 529.867,1643.72C516.839,1638.18 505.367,1630.55 495.45,1620.82C485.534,1611.1 477.804,1599.68 472.263,1586.55C466.721,1573.43 463.95,1559.28 463.95,1544.12ZM495.45,1544.41C495.45,1558.8 498.853,1571.92 505.659,1583.78C512.464,1595.64 521.7,1605.07 533.367,1612.07C545.034,1619.07 558.061,1622.57 572.45,1622.57C586.645,1622.57 599.478,1619.07 610.95,1612.07C622.422,1605.07 631.561,1595.64 638.367,1583.78C645.172,1571.92 648.575,1558.7 648.575,1544.12C648.575,1529.53 645.124,1516.26 638.221,1504.3C631.318,1492.34 622.082,1482.87 610.513,1475.87C598.943,1468.87 586.061,1465.37 571.867,1465.37C557.478,1465.37 544.499,1468.91 532.929,1476.01C521.36,1483.11 512.221,1492.63 505.513,1504.59C498.804,1516.55 495.45,1529.82 495.45,1544.41Z" style="fill:rgb(0,43,255);"/>
                    <path d="M784.492,1438.24C807.825,1438.24 826.103,1444.07 839.325,1455.74C852.547,1467.41 859.159,1483.74 859.159,1504.74C859.159,1513.1 857.895,1521.37 855.367,1529.53C852.839,1537.7 848.804,1545.13 843.263,1551.84C837.721,1558.55 830.429,1563.9 821.388,1567.88C812.346,1571.87 801.311,1573.87 788.284,1573.87L757.075,1573.87L757.075,1649.7L726.742,1649.7L726.742,1438.24L784.492,1438.24ZM787.992,1544.12C795.964,1544.12 802.624,1542.8 807.971,1540.18C813.318,1537.55 817.499,1534.2 820.513,1530.12C823.527,1526.03 825.665,1521.75 826.929,1517.28C828.193,1512.81 828.825,1508.82 828.825,1505.32C828.825,1501.43 828.193,1497.3 826.929,1492.93C825.665,1488.55 823.527,1484.47 820.513,1480.68C817.499,1476.88 813.464,1473.77 808.409,1471.34C803.353,1468.91 797.034,1467.7 789.45,1467.7L757.075,1467.7L757.075,1544.12L787.992,1544.12Z" style="fill:rgb(0,43,255);"/>
                    <path d="M886.867,1438.24L1027.74,1438.24L1027.74,1467.7L971.742,1467.7L971.742,1649.7L941.117,1649.7L941.117,1467.7L886.867,1467.7L886.867,1438.24Z" style="fill:rgb(0,43,255);"/>
                </g>
                <g transform="matrix(6.54971,0,0,4.33,-820.348,380.954)">
                    <g transform="matrix(1,0,0,1.06292,0,-0.377546)">
                        <path d="M12,2L12,6" style="fill:none;fill-rule:nonzero;stroke:rgb(31,255,214);stroke-width:2.72px;"/>
                    </g>
                    <g transform="matrix(0.973783,0,0,0.982322,0.310248,0.359465)">
                        <path d="M8.5,3.706C5.268,5.072 3,8.271 3,12C3,14.305 3.867,16.408 5.292,18C6.435,19.277 7.233,19.929 9,20.488C9.949,20.788 10.948,21 12,21C16.971,21 21,16.971 21,12C21,8.271 18.732,5.072 15.5,3.706" style="fill:none;fill-rule:nonzero;stroke:rgb(0,43,255);stroke-width:2.72px;stroke-linecap:butt;"/>
                    </g>
                </g>
                <g transform="matrix(0.553439,-2.04433e-18,3.16633e-18,0.357326,-1664.23,-297.471)">
                    <path d="M971.391,2364.16C957.391,2364.16 945.336,2361.39 935.225,2355.85C925.113,2350.31 917.336,2342.62 911.891,2332.81C906.447,2322.99 903.725,2311.85 903.725,2299.41C903.725,2287.35 906.787,2276.42 912.912,2266.6C919.037,2256.78 927.252,2248.95 937.558,2243.12C947.863,2237.28 959.336,2234.37 971.975,2234.37C988.308,2234.37 1001.87,2239.08 1012.66,2248.51C1023.45,2257.95 1030.7,2271.22 1034.39,2288.33L934.933,2322.74L927.933,2305.83L1007.85,2276.66L1001.73,2280.74C999.391,2274.52 995.697,2269.12 990.641,2264.56C985.586,2259.99 978.683,2257.7 969.933,2257.7C959.044,2257.7 950.148,2261.45 943.245,2268.93C936.343,2276.42 932.891,2285.99 932.891,2297.66C932.891,2310.1 936.586,2320.12 943.975,2327.7C951.363,2335.28 960.697,2339.08 971.975,2339.08C977.225,2339.08 982.28,2338.15 987.141,2336.31C992.002,2334.46 996.572,2331.98 1000.85,2328.87L1014.27,2350.74C1008.04,2354.83 1001.19,2358.08 993.704,2360.51C986.218,2362.95 978.78,2364.16 971.391,2364.16Z" style="fill:rgb(31,255,214);fill-rule:nonzero;"/>
                    <path d="M1093.89,2239.33L1096.52,2267.62L1095.35,2263.53C1099.24,2254.78 1105.51,2247.78 1114.16,2242.53C1122.82,2237.28 1132.98,2234.66 1144.64,2234.66C1156.11,2234.66 1165.54,2238.01 1172.93,2244.72C1180.32,2251.43 1184.11,2260.23 1184.31,2271.12L1184.31,2361.24L1154.85,2361.24L1154.85,2281.33C1154.65,2275.1 1152.81,2270 1149.31,2266.01C1145.81,2262.03 1140.36,2259.94 1132.98,2259.74C1122.67,2259.74 1114.07,2264.02 1107.16,2272.58C1100.26,2281.13 1096.81,2292.12 1096.81,2305.53L1096.81,2361.24L1067.35,2361.24L1067.35,2239.33L1093.89,2239.33Z" style="fill:rgb(31,255,214);fill-rule:nonzero;"/>
                    <path d="M1287.85,2364.16C1273.85,2364.16 1261.79,2361.39 1251.68,2355.85C1241.57,2350.31 1233.79,2342.62 1228.35,2332.81C1222.9,2322.99 1220.18,2311.85 1220.18,2299.41C1220.18,2287.35 1223.25,2276.42 1229.37,2266.6C1235.5,2256.78 1243.71,2248.95 1254.02,2243.12C1264.32,2237.28 1275.79,2234.37 1288.43,2234.37C1304.77,2234.37 1318.33,2239.08 1329.12,2248.51C1339.91,2257.95 1347.15,2271.22 1350.85,2288.33L1251.39,2322.74L1244.39,2305.83L1324.31,2276.66L1318.18,2280.74C1315.85,2274.52 1312.15,2269.12 1307.1,2264.56C1302.04,2259.99 1295.14,2257.7 1286.39,2257.7C1275.5,2257.7 1266.61,2261.45 1259.7,2268.93C1252.8,2276.42 1249.35,2285.99 1249.35,2297.66C1249.35,2310.1 1253.04,2320.12 1260.43,2327.7C1267.82,2335.28 1277.15,2339.08 1288.43,2339.08C1293.68,2339.08 1298.74,2338.15 1303.6,2336.31C1308.46,2334.46 1313.03,2331.98 1317.31,2328.87L1330.73,2350.74C1324.5,2354.83 1317.65,2358.08 1310.16,2360.51C1302.68,2362.95 1295.24,2364.16 1287.85,2364.16Z" style="fill:rgb(31,255,214);fill-rule:nonzero;"/>
                    <path d="M1410.06,2239.33L1412.98,2274.33L1411.81,2269.66C1415.11,2262.27 1419.73,2255.95 1425.66,2250.7C1431.59,2245.45 1437.82,2241.42 1444.33,2238.6C1450.84,2235.78 1456.34,2234.37 1460.81,2234.37L1459.35,2263.53C1450.21,2262.95 1442.19,2264.7 1435.29,2268.78C1428.38,2272.87 1422.99,2278.31 1419.1,2285.12C1415.21,2291.92 1413.27,2299.22 1413.27,2306.99L1413.27,2361.24L1383.81,2361.24L1383.81,2239.33L1410.06,2239.33Z" style="fill:rgb(31,255,214);fill-rule:nonzero;"/>
                    <path d="M1549.18,2421.91C1539.85,2421.91 1531.68,2420.79 1524.68,2418.56C1517.68,2416.32 1511.41,2413.35 1505.87,2409.66C1500.33,2405.97 1495.03,2401.88 1489.98,2397.41L1507.48,2377.28C1513.5,2383.12 1519.77,2387.69 1526.29,2390.99C1532.8,2394.3 1540.24,2395.95 1548.6,2395.95C1561.82,2395.95 1572.03,2392.84 1579.23,2386.62C1586.42,2380.4 1590.11,2372.03 1590.31,2361.53L1590.31,2329.74L1592.35,2335.28C1588.85,2343.45 1582.68,2350.31 1573.83,2355.85C1564.98,2361.39 1554.04,2364.16 1541.02,2364.16C1529.74,2364.16 1519.43,2361.34 1510.1,2355.7C1500.77,2350.06 1493.28,2342.38 1487.64,2332.66C1482,2322.94 1479.18,2311.95 1479.18,2299.7C1479.18,2287.06 1482.15,2275.83 1488.08,2266.01C1494.01,2256.2 1501.84,2248.47 1511.56,2242.83C1521.28,2237.19 1531.68,2234.37 1542.77,2234.37C1553.65,2234.37 1563.43,2236.41 1572.08,2240.49C1580.73,2244.58 1587.1,2249.83 1591.18,2256.24L1589.73,2261.2L1592.64,2239.33L1619.77,2239.33L1619.77,2362.12C1619.77,2373.2 1616.85,2383.26 1611.02,2392.31C1605.18,2401.35 1597.02,2408.54 1586.52,2413.89C1576.02,2419.24 1563.57,2421.91 1549.18,2421.91ZM1508.93,2298.83C1508.93,2306.6 1510.73,2313.6 1514.33,2319.83C1517.93,2326.05 1522.79,2330.96 1528.91,2334.56C1535.04,2338.15 1541.89,2339.95 1549.48,2339.95C1559.78,2339.95 1568.53,2337.28 1575.73,2331.93C1582.92,2326.58 1587.78,2319.73 1590.31,2311.37L1590.31,2286.28C1587.78,2277.92 1582.82,2271.17 1575.43,2266.01C1568.04,2260.86 1559.39,2258.28 1549.48,2258.28C1541.89,2258.28 1535.04,2260.03 1528.91,2263.53C1522.79,2267.03 1517.93,2271.8 1514.33,2277.83C1510.73,2283.85 1508.93,2290.85 1508.93,2298.83Z" style="fill:rgb(31,255,214);fill-rule:nonzero;"/>
                    <path d="M1676.35,2419.87L1756.56,2239.33L1783.68,2239.33L1704.93,2419.87L1676.35,2419.87ZM1706.68,2362.12L1648.06,2239.33L1681.02,2239.33L1729.73,2347.24L1706.68,2362.12Z" style="fill:rgb(31,255,214);fill-rule:nonzero;"/>
                </g>
            </g>
        </g>
    </g>
</svg>
