<?xml version="1.0" encoding="UTF-8" standalone="no"?>
<!DOCTYPE svg PUBLIC "-//W3C//DTD SVG 1.1//EN" "http://www.w3.org/Graphics/SVG/1.1/DTD/svg11.dtd">
<svg width="100%" height="100%" viewBox="0 0 251 271" version="1.1" xmlns="http://www.w3.org/2000/svg" xmlns:xlink="http://www.w3.org/1999/xlink" xml:space="preserve" xmlns:serif="http://www.serif.com/" style="fill-rule:evenodd;clip-rule:evenodd;stroke-linecap:square;stroke-miterlimit:2;">
    <g transform="matrix(1,0,0,1,-6489.21,-9817.58)">
        <g transform="matrix(1.62625,0,0,2.45993,7664.34,6456.45)">
            <g transform="matrix(6.54971,0,0,4.33,-724.288,1372.37)">
                <g transform="matrix(1,0,0,1.06292,0,-0.377546)">
                    <path d="M12,2L12,6" style="fill:none;fill-rule:nonzero;stroke:rgb(31,255,214);stroke-width:2.72px;"/>
                </g>
                <g transform="matrix(0.973783,0,0,0.982322,0.310248,0.359465)">
                    <path d="M8.5,3.706C5.268,5.072 3,8.271 3,12C3,14.305 3.867,16.408 5.292,18C6.435,19.277 7.233,19.929 9,20.488C9.949,20.788 10.948,21 12,21C16.971,21 21,16.971 21,12C21,8.271 18.732,5.072 15.5,3.706" style="fill:none;fill-rule:nonzero;stroke:rgb(23,69,107);stroke-width:2.72px;stroke-linecap:butt;"/>
                </g>
            </g>
        </g>
    </g>
</svg>
